<?xml version="1.0" standalone="no"?>
<!DOCTYPE svg PUBLIC "-//W3C//DTD SVG 20010904//EN"
 "http://www.w3.org/TR/2001/REC-SVG-20010904/DTD/svg10.dtd">
<svg version="1.0" xmlns="http://www.w3.org/2000/svg"
 width="500.000000pt" height="500.000000pt" viewBox="0 0 500.000000 500.000000"
 preserveAspectRatio="xMidYMid meet">

<g transform="translate(0.000000,500.000000) scale(0.100000,-0.100000)"
fill="#000000" stroke="none">
<path d="M2380 3320 c-25 -5 -304 -66 -620 -136 -648 -142 -644 -140 -692
-233 l-28 -53 0 -387 c0 -224 4 -401 10 -422 14 -51 73 -115 123 -133 23 -9
303 -75 622 -148 l580 -132 130 0 130 0 599 138 c643 147 642 147 694 223 l27
38 3 417 c2 371 1 421 -14 450 -28 57 -75 98 -129 113 -27 8 -306 71 -620 140
-597 132 -704 148 -815 125z m48 -232 c-9 -7 -19 -26 -21 -43 -4 -27 -4 -27
-6 7 0 20 -7 39 -13 41 -7 3 2 6 21 6 30 1 32 -1 19 -11z m77 -28 c8 0 15 9
15 21 0 11 5 17 10 14 6 -3 10 -22 10 -41 0 -19 -4 -34 -10 -34 -5 0 -10 7
-10 15 0 21 -38 19 -43 -2 -3 -10 -5 2 -5 27 -1 36 1 41 8 23 5 -13 16 -23 25
-23z m103 33 c-20 -5 -24 -33 -5 -34 10 0 10 -2 0 -6 -18 -7 -16 -21 5 -26 13
-4 11 -5 -5 -6 -20 -1 -23 4 -23 39 0 35 3 40 23 39 16 -1 18 -2 5 -6z m-70
-176 l22 -32 -26 -3 c-14 -2 -34 4 -45 14 -17 15 -19 15 -25 0 -4 -10 -18 -16
-41 -16 l-34 0 27 35 c22 29 33 35 63 35 29 0 40 -6 59 -33z m-378 -79 c1 -7
7 -26 14 -43 l13 -30 13 43 13 42 64 0 c34 0 63 -2 63 -4 0 -2 -22 -43 -50
-92 -43 -78 -50 -96 -50 -146 l0 -58 -55 0 -55 0 0 56 c0 49 -7 69 -51 150
l-50 94 65 0 c46 0 66 -4 66 -12z m430 -33 l0 -45 -60 0 c-33 0 -60 -4 -60
-10 0 -5 25 -10 55 -10 l55 0 0 -40 0 -40 -55 0 c-30 0 -55 -4 -55 -10 0 -6
28 -10 65 -10 l65 0 0 -45 0 -45 -120 0 -120 0 0 150 0 150 115 0 115 0 0 -45z
m162 -46 c2 -73 6 -94 20 -102 12 -8 21 -7 32 2 12 10 16 33 16 102 l0 89 55
0 55 0 0 -97 c0 -114 -16 -156 -69 -187 -42 -24 -120 -25 -156 -2 -52 34 -65
72 -65 184 l0 102 55 0 54 0 3 -91z m-1401 -225 c11 -13 10 -21 -6 -50 -10
-19 -22 -34 -27 -34 -12 0 -10 14 4 28 9 9 8 12 -4 12 -21 0 -28 20 -16 43 11
21 31 22 49 1z m80 0 c11 -13 10 -21 -6 -50 -10 -19 -22 -34 -27 -34 -12 0
-10 14 4 28 9 9 8 12 -4 12 -21 0 -28 20 -16 43 11 21 31 22 49 1z m2197 -1
c5 -10 7 -25 4 -33 -7 -21 -33 -50 -45 -50 -6 0 -2 9 8 20 17 18 17 20 1 20
-22 0 -31 26 -16 45 17 20 37 19 48 -2z m80 -11 c4 -25 -22 -72 -39 -72 -8 0
-7 6 2 16 11 13 10 17 -4 25 -20 12 -22 30 -5 47 19 19 43 10 46 -16z m-1409
-137 c38 -19 57 -66 45 -112 -12 -46 -47 -72 -104 -76 l-45 -3 -3 -47 -3 -47
-55 0 -54 0 0 150 0 150 95 0 c64 0 105 -5 124 -15z m321 -30 l0 -45 -60 0
c-33 0 -60 -4 -60 -10 0 -5 25 -10 55 -10 l55 0 0 -40 0 -40 -55 0 c-76 0 -70
-18 8 -22 l62 -3 3 -42 3 -43 -120 0 -121 0 0 150 0 150 115 0 115 0 0 -45z
m300 -5 l0 -50 -40 0 -40 0 0 -100 0 -100 -55 0 -55 0 0 100 0 100 -40 0 -40
0 0 50 0 50 135 0 135 0 0 -50z m-555 -390 c3 -6 -1 -7 -9 -4 -21 8 -20 -13 1
-24 10 -6 14 -16 10 -26 -7 -19 -33 -21 -43 -4 -4 7 -3 8 4 4 23 -14 34 6 12
21 -17 12 -19 18 -9 29 13 16 25 18 34 4z m71 -30 c8 0 19 10 24 23 7 18 9 13
8 -23 0 -25 -2 -37 -5 -27 -2 9 -13 17 -23 17 -10 0 -21 -8 -23 -17 -3 -10 -5
2 -4 27 0 25 2 35 4 23 2 -13 11 -23 19 -23z m132 28 c15 -15 16 -55 1 -63
-21 -14 -59 5 -59 28 0 24 17 47 35 47 6 0 16 -5 23 -12z m99 1 c14 -14 6 -39
-13 -39 -8 0 -14 -7 -14 -15 0 -8 -4 -15 -10 -15 -5 0 -10 18 -10 40 0 32 4
40 18 40 10 0 23 -5 29 -11z"/>
<path d="M1312 2518 c6 -18 28 -21 28 -4 0 9 -7 16 -16 16 -9 0 -14 -5 -12
-12z"/>
<path d="M1392 2518 c6 -18 28 -21 28 -4 0 9 -7 16 -16 16 -9 0 -14 -5 -12
-12z"/>
<path d="M3590 2514 c0 -9 5 -14 12 -12 18 6 21 28 4 28 -9 0 -16 -7 -16 -16z"/>
<path d="M3670 2514 c0 -9 5 -14 12 -12 18 6 21 28 4 28 -9 0 -16 -7 -16 -16z"/>
<path d="M2190 2300 c0 -16 5 -21 23 -18 12 2 22 10 22 18 0 8 -10 16 -22 18
-18 3 -23 -2 -23 -18z"/>
<path d="M2530 1945 c-16 -19 -5 -47 17 -43 22 4 29 43 9 51 -8 3 -20 -1 -26
-8z"/>
<path d="M2640 1946 c0 -9 5 -16 10 -16 6 0 10 4 10 9 0 6 -4 13 -10 16 -5 3
-10 -1 -10 -9z"/>
</g>
</svg>
